<?xml version="1.0" standalone="no"?><!DOCTYPE svg PUBLIC "-//W3C//DTD SVG 1.1//EN" "http://www.w3.org/Graphics/SVG/1.1/DTD/svg11.dtd"><svg t="1564564300315" class="icon" viewBox="0 0 1066 1024" version="1.1" xmlns="http://www.w3.org/2000/svg" p-id="8357" width="133.25" height="128" xmlns:xlink="http://www.w3.org/1999/xlink"><defs><style type="text/css"></style></defs><path d="M546.133333 883.2c-8.533333 4.266667-17.066667 4.266667-25.6 4.266667-64 0-119.466667-76.8-153.6-187.733334 46.933333 8.533333 98.133333 12.8 153.6 12.8h25.6v-38.4h-25.6c-59.733333 0-115.2-4.266667-162.133333-17.066666-8.533333-46.933333-17.066667-102.4-17.066667-162.133334s8.533333-110.933333 17.066667-162.133333c51.2-12.8 106.666667-17.066667 162.133333-17.066667 59.733333 0 115.2 4.266667 162.133334 17.066667 12.8 51.2 17.066667 106.666667 17.066666 162.133333h38.4c0-55.466667-4.266667-106.666667-12.8-153.6 110.933333 34.133333 187.733333 89.6 187.733334 153.6h38.4c0-234.666667-192-426.666667-426.666667-426.666666s-426.666667 192-426.666667 426.666666 192 426.666667 426.666667 426.666667h25.6v-38.4z m354.133334-490.666667c-42.666667-38.4-102.4-72.533333-183.466667-89.6-21.333333-76.8-51.2-140.8-89.6-183.466666 132.266667 34.133333 234.666667 140.8 273.066667 273.066666z m-375.466667-285.866666c64 0 119.466667 76.8 153.6 187.733333-46.933333-8.533333-98.133333-12.8-153.6-12.8-55.466667 0-106.666667 4.266667-153.6 12.8 29.866667-115.2 85.333333-187.733333 153.6-187.733333z m-106.666667 12.8c-38.4 42.666667-72.533333 102.4-89.6 183.466666-76.8 17.066667-140.8 46.933333-183.466666 89.6 38.4-132.266667 140.8-238.933333 273.066666-273.066666zM320 341.333333c-8.533333 46.933333-12.8 98.133333-12.8 153.6 0 55.466667 4.266667 106.666667 12.8 153.6-110.933333-34.133333-187.733333-89.6-187.733333-153.6S209.066667 375.466667 320 341.333333z m-174.933333 256c42.666667 38.4 102.4 68.266667 183.466666 89.6 21.333333 76.8 51.2 140.8 89.6 183.466667-132.266667-34.133333-234.666667-140.8-273.066666-273.066667z" p-id="8358" data-spm-anchor-id="a313x.7781069.0.i48" class="selected" fill="#3880ff"></path><path d="M699.733333 921.6c-17.066667 0-29.866667-12.8-29.866666-29.866667v-157.866666l-145.066667-162.133334c-12.8-12.8-12.8-34.133333 0-46.933333 4.266667-4.266667 12.8-8.533333 21.333333-8.533333l371.2 4.266666c17.066667 0 29.866667 12.8 29.866667 29.866667 0 8.533333-4.266667 17.066667-8.533333 21.333333l-145.066667 157.866667v128c0 4.266667-4.266667 8.533333-8.533333 12.8l-72.533334 46.933333c-4.266667 4.266667-8.533333 4.266667-12.8 4.266667z m-153.6-375.466667l149.333334 166.4c4.266667 4.266667 4.266667 8.533333 4.266666 12.8v166.4l64-38.4v-128c0-4.266667 0-8.533333 4.266667-12.8l149.333333-162.133333-371.2-4.266667z" p-id="8359" data-spm-anchor-id="a313x.7781069.0.i43" class="selected" fill="#8a8a8a"></path></svg>