<?xml version="1.0" standalone="no"?><!DOCTYPE svg PUBLIC "-//W3C//DTD SVG 1.1//EN" "http://www.w3.org/Graphics/SVG/1.1/DTD/svg11.dtd"><svg t="1564985881206" class="icon" viewBox="0 0 1024 1024" version="1.1" xmlns="http://www.w3.org/2000/svg" p-id="1598" width="128" height="128" xmlns:xlink="http://www.w3.org/1999/xlink"><defs><style type="text/css"></style></defs><path d="M219.541333 304.277333a32 32 0 1 1-55.082666-32.554666l44.138666-74.666667a32 32 0 0 1 27.541334-15.722667h551.722666a32 32 0 0 1 27.541334 15.722667l44.16 74.666667a32 32 0 1 1-55.104 32.554666L769.6 245.333333h-515.2l-34.858667 58.944z" p-id="1599" data-spm-anchor-id="a313x.7781069.0.i2" class="" fill="#1296db"></path><path d="M490.666667 192h64v640h-64z" p-id="1600" data-spm-anchor-id="a313x.7781069.0.i0" class="" fill="#1296db"></path><path d="M405.333333 810.666667m32 0l170.666667 0q32 0 32 32l0 0q0 32-32 32l-170.666667 0q-32 0-32-32l0 0q0-32 32-32Z" p-id="1601" data-spm-anchor-id="a313x.7781069.0.i1" class="selected" fill="#bfbfbf"></path></svg>