<?xml version="1.0" encoding="utf-8"?>
<!-- Generator: Adobe Illustrator 16.0.0, SVG Export Plug-In . SVG Version: 6.00 Build 0)  -->
<!DOCTYPE svg PUBLIC "-//W3C//DTD SVG 1.1//EN" "http://www.w3.org/Graphics/SVG/1.1/DTD/svg11.dtd">
<svg version="1.1" id="图层_1" xmlns="http://www.w3.org/2000/svg" xmlns:xlink="http://www.w3.org/1999/xlink" x="0px" y="0px"
	 width="200px" height="200px" viewBox="0 0 200 200" enable-background="new 0 0 200 200" xml:space="preserve">
<path fill="#989aa2" d="M163.054,167.602c-4.138,0-6.607-2.342-6.607-6.269v-23.388c0-6.415-4.216-6.415-5.804-6.415
	c-7.4,0-7.485,7.354-7.485,7.432v22.371c0,3.807-2.513,6.269-6.407,6.269c-4.077,0-6.609-2.4-6.609-6.269v-35.39
	c0-3.914,2.481-6.342,6.473-6.342c2.885,0,4.989,1.24,5.955,3.379c2.385-1.781,5.771-3.379,10.453-3.379
	c10.291,0,16.438,6.4,16.438,17.117v24.613c0.002,2.328-0.917,3.741-1.688,4.511C166.625,166.993,164.992,167.602,163.054,167.602
	L163.054,167.602z"/>
<path fill="#989aa2" d="M118.731,166.181H93.106c-8.132,0-11.762-3.605-11.762-11.698v-36.07c0-8.087,3.63-11.693,11.762-11.693
	h24.477c3.769,0,6.204,2.407,6.204,6.131c0,3.77-2.436,6.207-6.204,6.207H95.481c-0.429,0-0.638,0.067-0.684,0.094
	c0.024-0.007-0.027,0.153-0.027,0.55v9.998h20.168c5.756,0.015,6.204,4.595,6.204,6.002c0,3.688-2.436,6.064-6.204,6.064H94.77
	v11.429c0,0.352,0.046,0.532,0.068,0.598c0.022-0.008,0.229,0.047,0.643,0.047h23.253c4.291,0,6.209,3.082,6.209,6.135
	C124.941,163.801,122.565,166.181,118.731,166.181L118.731,166.181z"/>
<path fill="#3880FF" d="M64.472,94.604c-4.333,0-6.816-2.343-6.816-6.43V73.245H41.432c-8.718,0-12.608-3.89-12.608-12.608V42.788
	c0-8.667,3.89-12.53,12.608-12.53h16.224v-5.997c0-3.979,2.435-6.354,6.51-6.354c5.752,0,6.961,3.455,6.961,6.354v6.001h16.369
	c8.722,0,12.611,3.866,12.611,12.529v17.851c0,8.718-3.89,12.605-12.611,12.605H71.127v14.929
	C71.127,92.2,68.639,94.604,64.472,94.604L64.472,94.604z"/>
<path fill="#FFFFFF" d="M43.493,42.971c-1.231,0-1.346,0.114-1.346,1.346v14.868c0,1.243,0.114,1.357,1.346,1.357h14.163V42.971
	H43.493L43.493,42.971z"/>
<path fill="#FFFFFF" d="M71.127,60.535h14.314c1.197,0,1.348-0.153,1.348-1.346V44.311c0-1.194-0.15-1.348-1.348-1.348H71.127
	V60.535z"/>
<path fill="#989aa2" d="M99.915,185.243c-46.847,0-84.961-38.194-84.961-85.143c0-6.78,0.8-13.534,2.381-20.083
	c0.867-3.584,4.602-5.868,8.182-4.999c1.748,0.416,3.257,1.513,4.191,3.047c0.948,1.548,1.233,3.367,0.808,5.128
	c-1.333,5.535-2.005,11.208-2.002,16.9c0,39.478,32.033,71.589,71.405,71.589c3.74,0.006,6.77,3.037,6.775,6.777
	C106.688,182.203,103.657,185.236,99.915,185.243L99.915,185.243z"/>
<path fill="#989aa2" d="M175.687,126.291c-2.092-0.006-4.065-0.971-5.354-2.618c-1.275-1.653-1.727-3.8-1.221-5.825
	c1.467-5.764,2.206-11.73,2.206-17.747c0-39.474-32.032-71.589-71.404-71.589c-3.74-0.006-6.77-3.037-6.775-6.777
	c0.006-3.74,3.037-6.77,6.777-6.775c46.848,0,84.962,38.194,84.962,85.142c0,7.128-0.884,14.222-2.625,21.079
	C181.492,124.186,178.787,126.291,175.687,126.291L175.687,126.291z"/>
</svg>
